<svg xmlns="http://www.w3.org/2000/svg" width="96" height="96" viewBox="0 0 96 96">
    <g fill="none" fill-rule="evenodd">
        <path fill="#327DE1" d="M27.402 0h41.196c9.529 0 12.984.992 16.467 2.855a19.422 19.422 0 0 1 8.08 8.08C95.008 14.418 96 17.873 96 27.402v41.196c0 9.529-.992 12.984-2.855 16.467a19.422 19.422 0 0 1-8.08 8.08C81.582 95.008 78.127 96 68.598 96H27.402c-9.529 0-12.984-.992-16.467-2.855a19.422 19.422 0 0 1-8.08-8.08C.992 81.582 0 78.127 0 68.598V27.402c0-9.529.992-12.984 2.855-16.467a19.422 19.422 0 0 1 8.08-8.08C14.418.992 17.873 0 27.402 0z"/>
        <g fill="#FFF" fill-opacity=".78" transform="translate(12.42 21.18)">
            <rect width="16.203" height="64.859" x="32.01" y="-3.74" rx="8.1" transform="rotate(45 40.111 28.69)"/>
            <rect width="16.203" height="32.43" x="9.109" y="23.938" rx="8.1" transform="rotate(-45 17.21 40.153)"/>
        </g>
    </g>
</svg>
